<?xml version="1.0" standalone="no"?>
<!DOCTYPE svg PUBLIC "-//W3C//DTD SVG 20010904//EN"
 "http://www.w3.org/TR/2001/REC-SVG-20010904/DTD/svg10.dtd">
<svg version="1.0" xmlns="http://www.w3.org/2000/svg"
 width="509.000000pt" height="513.000000pt" viewBox="0 0 509.000000 513.000000"
 preserveAspectRatio="xMidYMid meet">

<g transform="translate(0.000000,513.000000) scale(0.100000,-0.100000)"
fill="#000000" stroke="none">
<path d="M2230 4871 c22 -6 23 -8 7 -14 -10 -4 -82 -14 -160 -22 -78 -8 -167
-22 -197 -30 -30 -8 -71 -15 -91 -15 -20 0 -65 -9 -100 -20 -35 -10 -84 -22
-109 -26 -25 -4 -62 -15 -82 -25 -21 -11 -48 -19 -60 -19 -13 0 -41 -9 -63
-20 -21 -11 -55 -23 -74 -26 -20 -4 -53 -15 -73 -25 -21 -11 -43 -19 -49 -19
-13 0 -33 -9 -194 -86 -49 -23 -101 -48 -115 -54 -14 -6 -45 -24 -70 -40 -25
-16 -58 -35 -75 -43 -16 -8 -36 -21 -44 -30 -7 -10 -19 -17 -25 -17 -13 0 -65
-36 -202 -139 -111 -83 -394 -360 -394 -385 0 -36 52 -6 175 98 62 54 158 121
204 144 14 7 33 17 41 23 8 5 31 17 50 25 19 9 45 25 59 35 13 10 31 19 39 19
9 0 23 6 31 14 15 14 40 24 161 68 30 11 60 24 67 30 7 5 27 14 45 18 18 4 56
17 83 28 81 32 146 53 210 67 33 7 80 20 105 28 79 25 183 49 255 59 39 5 97
16 130 24 32 9 115 20 183 25 68 5 143 14 166 20 60 16 810 24 906 10 41 -7
120 -16 175 -22 55 -5 143 -17 195 -25 52 -9 124 -20 160 -25 36 -6 95 -19
131 -29 36 -11 78 -20 93 -20 15 0 48 -9 74 -19 26 -10 74 -26 107 -34 127
-33 181 -49 221 -68 22 -10 47 -19 55 -19 8 0 28 -8 44 -18 17 -10 44 -22 60
-26 29 -7 125 -48 155 -67 8 -5 22 -12 30 -15 8 -3 26 -12 40 -20 14 -8 43
-24 65 -35 114 -57 97 -47 181 -104 32 -22 91 -67 130 -100 74 -62 140 -103
150 -92 24 23 -221 271 -390 394 -39 29 -91 67 -116 86 -25 19 -58 42 -75 51
-16 10 -48 28 -70 41 -22 13 -57 33 -77 44 -20 12 -39 25 -43 31 -3 5 -14 10
-24 10 -10 0 -35 11 -55 25 -20 14 -45 25 -54 25 -9 0 -28 9 -42 20 -14 11
-30 20 -35 20 -6 0 -26 9 -46 19 -19 11 -55 25 -80 32 -24 7 -53 19 -64 26
-11 7 -27 13 -37 13 -10 0 -46 11 -80 24 -114 43 -162 57 -233 71 -38 8 -88
21 -110 29 -22 8 -58 15 -80 16 -22 0 -65 7 -95 15 -30 8 -119 22 -197 30 -78
8 -150 18 -160 22 -16 6 -15 8 7 14 14 4 -132 7 -325 7 -192 0 -339 -3 -325
-7z"/>
<path d="M1835 4149 c-286 -3 -529 -9 -540 -13 -11 -3 -60 -13 -110 -20 -92
-15 -208 -50 -235 -72 -8 -6 -26 -15 -40 -19 -14 -4 -34 -15 -45 -25 -11 -9
-44 -32 -74 -51 -40 -25 -71 -59 -121 -129 -118 -166 -148 -332 -95 -535 37
-143 81 -219 187 -321 69 -67 127 -108 233 -166 51 -27 194 -78 220 -78 12 0
26 -5 33 -12 18 -18 -4 -48 -36 -48 -38 1 -199 -39 -250 -61 -23 -11 -48 -19
-55 -19 -34 0 -239 -129 -300 -188 -59 -57 -130 -154 -163 -222 -28 -59 -64
-231 -64 -311 0 -86 35 -257 68 -329 55 -122 214 -290 344 -364 59 -34 149
-76 164 -76 8 0 31 -9 51 -20 21 -11 49 -20 63 -20 14 -1 50 -10 80 -22 53
-20 81 -21 705 -28 358 -4 905 -8 1216 -9 652 -1 612 -7 613 87 1 41 -4 56
-22 74 -20 20 -36 24 -125 28 -80 5 -117 12 -172 34 -82 33 -112 62 -120 114
-3 20 -10 56 -16 79 -5 23 -9 244 -9 492 0 419 1 451 18 460 9 5 116 11 237
14 204 4 319 15 420 37 85 19 181 48 210 64 17 9 36 16 44 16 17 0 166 89 236
140 98 72 230 241 263 335 7 21 19 51 26 65 32 62 50 167 54 310 3 130 1 152
-19 215 -28 86 -71 177 -109 230 -28 40 -122 130 -177 171 -140 104 -361 174
-600 190 -116 8 -1393 10 -1988 3z m1202 -123 c38 -41 41 -68 13 -114 -21 -34
-74 -72 -101 -72 -8 0 -34 16 -57 35 -62 54 -66 111 -12 165 26 26 40 30 85
25 30 -3 48 -13 72 -39z m-697 9 c67 -35 82 -115 31 -166 -25 -24 -37 -29 -80
-29 -39 0 -55 5 -70 22 -46 49 -34 134 23 169 37 23 58 24 96 4z m-323 -89
c10 -9 13 -146 13 -589 1 -318 -2 -582 -5 -587 -4 -6 -92 -10 -223 -10 -207 0
-221 1 -300 26 -162 52 -251 120 -325 251 -75 131 -100 376 -56 558 21 90 80
193 137 243 79 67 142 92 312 122 66 12 432 1 447 -14z m1628 -8 c113 -10 138
-16 190 -43 86 -45 136 -79 166 -111 44 -49 99 -139 106 -175 3 -19 14 -50 23
-69 27 -54 46 -281 32 -369 -7 -38 -12 -83 -12 -98 0 -16 -9 -45 -19 -66 -10
-20 -22 -49 -26 -64 -9 -40 -92 -159 -136 -196 -58 -50 -166 -106 -259 -134
-74 -23 -108 -27 -266 -31 -125 -3 -188 -1 -203 7 l-21 12 0 663 0 664 22 14
c26 17 188 16 403 -4z m-960 -63 c14 -13 25 -31 25 -39 0 -8 9 -30 20 -49 20
-34 20 -47 18 -1218 -3 -1109 -4 -1186 -20 -1209 -10 -13 -18 -32 -18 -42 0
-30 -59 -88 -89 -88 -36 0 -85 62 -97 120 -11 59 -11 2349 0 2418 7 43 16 59
52 92 50 46 75 50 109 15z m-674 -1315 c18 -10 19 -28 19 -599 l0 -588 -34
-45 c-50 -65 -91 -91 -189 -122 -81 -26 -97 -28 -215 -24 -331 11 -525 150
-617 443 -27 85 -29 100 -29 280 -1 188 -1 191 28 265 30 76 67 130 140 208
39 42 134 112 151 112 5 0 27 9 50 20 89 43 204 58 448 59 140 1 236 -3 248
-9z m1035 -1231 c74 -45 85 -105 30 -163 -45 -49 -99 -50 -151 -5 -30 27 -35
37 -35 74 0 39 5 47 42 79 48 41 68 44 114 15z m-686 -49 c44 -55 40 -88 -15
-139 -53 -49 -78 -51 -132 -12 -29 21 -42 39 -47 64 -22 115 121 179 194 87z"/>
<path d="M60 1367 c0 -38 192 -235 329 -337 18 -14 58 -45 89 -70 77 -62 279
-194 347 -227 22 -10 49 -24 60 -30 26 -15 193 -94 269 -127 32 -14 66 -26 75
-26 9 0 32 -8 51 -19 19 -10 51 -22 70 -26 19 -4 44 -13 56 -20 11 -7 46 -18
77 -24 30 -5 70 -16 89 -24 18 -8 58 -17 88 -21 30 -4 84 -16 119 -27 35 -10
80 -19 101 -19 21 0 76 -9 122 -20 203 -47 915 -47 1112 1 43 10 96 19 116 19
21 0 66 9 101 19 35 11 84 22 109 25 43 6 135 31 230 62 25 9 65 21 90 28 25
8 59 21 75 30 17 9 38 16 48 16 10 0 40 11 67 25 27 14 58 25 68 25 11 0 25 7
32 15 7 8 30 20 51 27 22 6 39 15 39 19 0 4 17 13 38 20 20 6 48 20 61 30 13
11 30 19 38 19 7 0 26 8 41 18 15 11 45 30 67 44 103 64 195 127 247 168 31
25 78 61 105 80 70 52 299 281 306 308 11 46 -36 26 -127 -55 -49 -44 -155
-119 -224 -160 -36 -21 -71 -41 -150 -83 -20 -11 -44 -24 -52 -30 -8 -5 -44
-21 -80 -35 -36 -15 -87 -37 -115 -50 -92 -43 -204 -84 -315 -114 -36 -10 -78
-23 -95 -29 -46 -16 -144 -42 -200 -53 -27 -6 -68 -15 -90 -20 -22 -5 -83 -16
-135 -25 -52 -8 -131 -21 -175 -30 -44 -9 -138 -20 -210 -25 -71 -4 -171 -13
-222 -19 -117 -13 -479 -13 -603 0 -52 6 -153 15 -225 20 -71 5 -159 15 -195
24 -36 8 -106 19 -156 25 -51 6 -111 18 -134 26 -23 8 -59 15 -79 15 -20 0
-67 11 -106 25 -38 13 -80 25 -93 25 -13 0 -37 7 -55 16 -17 9 -56 22 -87 29
-59 14 -137 39 -185 61 -16 8 -49 20 -73 29 -23 8 -53 21 -65 30 -12 8 -29 15
-38 15 -15 0 -160 71 -269 132 -19 11 -49 28 -67 37 -43 24 -139 93 -234 168
-104 82 -129 96 -129 70z"/>
</g>
</svg>
